<svg width="24" height="24" viewBox="0 0 24 24" fill="none" xmlns="http://www.w3.org/2000/svg">
<path d="M16.4693 1.33325H7.53059C3.64792 1.33325 1.33325 3.64792 1.33325 7.53059V16.4693C1.33325 20.3519 3.64792 22.6666 7.53059 22.6666H16.4693C20.3519 22.6666 22.6666 20.3519 22.6666 16.4693V7.53059C22.6666 3.64792 20.3519 1.33325 16.4693 1.33325ZM9.83459 15.0933L7.43459 17.4933C7.27459 17.6533 7.07192 17.7279 6.86925 17.7279C6.66659 17.7279 6.45325 17.6533 6.30392 17.4933L5.50392 16.6933C5.18392 16.3839 5.18392 15.8719 5.50392 15.5626C5.81325 15.2533 6.31459 15.2533 6.63459 15.5626L6.86925 15.7973L8.70392 13.9626C9.01325 13.6533 9.51459 13.6533 9.83459 13.9626C10.1439 14.2719 10.1439 14.7839 9.83459 15.0933ZM9.83459 7.62659L7.43459 10.0266C7.27459 10.1866 7.07192 10.2613 6.86925 10.2613C6.66659 10.2613 6.45325 10.1866 6.30392 10.0266L5.50392 9.22659C5.18392 8.91725 5.18392 8.40525 5.50392 8.09592C5.81325 7.78659 6.31459 7.78659 6.63459 8.09592L6.86925 8.33059L8.70392 6.49592C9.01325 6.18659 9.51459 6.18659 9.83459 6.49592C10.1439 6.80525 10.1439 7.31725 9.83459 7.62659ZM17.9306 16.9279H12.3306C11.8933 16.9279 11.5306 16.5653 11.5306 16.1279C11.5306 15.6906 11.8933 15.3279 12.3306 15.3279H17.9306C18.1428 15.3279 18.3462 15.4122 18.4963 15.5622C18.6463 15.7123 18.7306 15.9157 18.7306 16.1279C18.7306 16.3401 18.6463 16.5436 18.4963 16.6936C18.3462 16.8436 18.1428 16.9279 17.9306 16.9279ZM17.9306 9.46125H12.3306C11.8933 9.46125 11.5306 9.09859 11.5306 8.66125C11.5306 8.22392 11.8933 7.86125 12.3306 7.86125H17.9306C18.1428 7.86125 18.3462 7.94554 18.4963 8.09557C18.6463 8.2456 18.7306 8.44908 18.7306 8.66125C18.7306 8.87343 18.6463 9.07691 18.4963 9.22694C18.3462 9.37697 18.1428 9.46125 17.9306 9.46125Z" fill="white"/>
</svg>
