<svg width="24" height="24" viewBox="0 0 24 24" fill="none" xmlns="http://www.w3.org/2000/svg">
<path d="M8.08166 6.78094C7.99626 6.69537 7.89482 6.62748 7.78316 6.58115C7.67149 6.53483 7.55178 6.51099 7.43089 6.51099C7.30999 6.51099 7.19029 6.53483 7.07862 6.58115C6.96695 6.62748 6.86551 6.69537 6.78012 6.78094C3.90012 9.65171 3.90012 14.3409 6.78012 17.2209C6.95342 17.3922 7.18724 17.4882 7.43089 17.4882C7.67453 17.4882 7.90835 17.3922 8.08166 17.2209C8.16723 17.1355 8.23512 17.0341 8.28144 16.9224C8.32776 16.8108 8.3516 16.6911 8.3516 16.5702C8.3516 16.4493 8.32776 16.3296 8.28144 16.2179C8.23512 16.1062 8.16723 16.0048 8.08166 15.9194C7.04415 14.8792 6.4615 13.4701 6.4615 12.0009C6.4615 10.5318 7.04415 9.12263 8.08166 8.08248C8.16723 7.99708 8.23512 7.89564 8.28144 7.78398C8.32776 7.67231 8.3516 7.5526 8.3516 7.43171C8.3516 7.31081 8.32776 7.19111 8.28144 7.07944C8.23512 6.96777 8.16723 6.86633 8.08166 6.78094ZM19.8324 19.8332C24.1524 15.5132 24.1524 8.48863 19.8324 4.16863C19.747 4.08306 19.6456 4.01517 19.5339 3.96885C19.4223 3.92252 19.3026 3.89868 19.1817 3.89868C19.0608 3.89868 18.9411 3.92252 18.8294 3.96885C18.7177 4.01517 18.6163 4.08306 18.5309 4.16863C18.4453 4.25403 18.3774 4.35546 18.3311 4.46713C18.2848 4.5788 18.2609 4.69851 18.2609 4.8194C18.2609 4.94029 18.2848 5.06 18.3311 5.17167C18.3774 5.28334 18.4453 5.38477 18.5309 5.47017C22.1309 9.07017 22.1309 14.9317 18.5309 18.5225C18.1709 18.8825 18.1709 19.4732 18.5309 19.8332C18.7042 20.0045 18.938 20.1005 19.1817 20.1005C19.4253 20.1005 19.6591 20.0045 19.8324 19.8332Z" fill="white"/>
<path d="M15.9185 17.2209C16.0918 17.3922 16.3256 17.4882 16.5693 17.4882C16.8129 17.4882 17.0467 17.3922 17.22 17.2209C20.1 14.3409 20.1 9.66094 17.22 6.78094C17.1346 6.69548 17.0331 6.62769 16.9215 6.58144C16.8098 6.53519 16.6901 6.51138 16.5693 6.51138C16.4484 6.51138 16.3287 6.53519 16.2171 6.58144C16.1054 6.62769 16.004 6.69548 15.9185 6.78094C15.833 6.8664 15.7653 6.96785 15.719 7.07951C15.6728 7.19117 15.6489 7.31085 15.6489 7.43171C15.6489 7.55257 15.6728 7.67224 15.719 7.7839C15.7653 7.89556 15.833 7.99702 15.9185 8.08248C16.956 9.12263 17.5387 10.5318 17.5387 12.0009C17.5387 13.4701 16.956 14.8792 15.9185 15.9194C15.8329 16.0048 15.765 16.1062 15.7187 16.2179C15.6724 16.3296 15.6486 16.4493 15.6486 16.5702C15.6486 16.6911 15.6724 16.8108 15.7187 16.9224C15.765 17.0341 15.8329 17.1355 15.9185 17.2209ZM4.16773 19.8332C4.34092 20.0047 4.57479 20.1009 4.8185 20.1009C5.06222 20.1009 5.29609 20.0047 5.46927 19.8332C5.82927 19.4732 5.82927 18.8825 5.46927 18.5225C1.86927 14.9317 1.86927 9.07017 5.46927 5.47017C5.55485 5.38477 5.62274 5.28334 5.66906 5.17167C5.71538 5.06 5.73922 4.94029 5.73922 4.8194C5.73922 4.69851 5.71538 4.5788 5.66906 4.46713C5.62274 4.35546 5.55485 4.25403 5.46927 4.16863C5.38388 4.08306 5.28244 4.01517 5.17077 3.96885C5.0591 3.92252 4.9394 3.89868 4.8185 3.89868C4.69761 3.89868 4.5779 3.92252 4.46623 3.96885C4.35457 4.01517 4.25313 4.08306 4.16773 4.16863C-0.152266 8.48863 -0.152266 15.5132 4.16773 19.8332ZM12.0047 8.95663C11.1981 8.95639 10.4245 9.27655 9.85402 9.84669C9.28354 10.4168 8.9629 11.1902 8.96266 11.9968C8.96241 12.8033 9.28258 13.5769 9.85272 14.1474C10.4229 14.7179 11.1963 15.0385 12.0028 15.0388C12.8094 15.039 13.583 14.7189 14.1534 14.1487C14.7239 13.5786 15.0446 12.8052 15.0448 11.9986C15.0451 11.1921 14.7249 10.4185 14.1548 9.84799C13.5846 9.27751 12.8112 8.95688 12.0047 8.95663Z" fill="white"/>
</svg>
