<svg width="24" height="24" viewBox="0 0 24 24" fill="none" xmlns="http://www.w3.org/2000/svg">
<path fill-rule="evenodd" clip-rule="evenodd" d="M2.48294 15.1289L1.26594 7.52388C1.22682 7.27963 1.25898 7.02928 1.35856 6.80284C1.45813 6.5764 1.62091 6.38348 1.82736 6.24722C2.03381 6.11096 2.27518 6.03713 2.52254 6.03459C2.76989 6.03204 3.01273 6.10089 3.22194 6.23288L7.03494 8.64088L11.0309 4.06088C11.1516 3.92254 11.3006 3.81164 11.4677 3.73566C11.6349 3.65968 11.8163 3.62036 11.9999 3.62036C12.1835 3.62036 12.365 3.65968 12.5322 3.73566C12.6993 3.81164 12.8482 3.92254 12.9689 4.06088L16.9649 8.64088L20.7779 6.23288C20.9872 6.10135 21.23 6.03287 21.4771 6.03562C21.7243 6.03837 21.9654 6.11225 22.1717 6.24841C22.378 6.38457 22.5408 6.57726 22.6405 6.80345C22.7402 7.02963 22.7726 7.27974 22.7339 7.52388L21.5169 15.1289H2.48294ZM21.2769 16.6289L20.9219 18.8459C20.8537 19.2736 20.6352 19.6631 20.3056 19.9442C19.9761 20.2254 19.5571 20.3798 19.1239 20.3799H4.87594C3.98194 20.3799 3.21894 19.7299 3.07794 18.8459L2.72294 16.6289H21.2769Z" fill="white"/>
</svg>
